<svg id="_01_Icons_Line_checkmark-circle" data-name="01) Icons/Line/checkmark-circle" xmlns="http://www.w3.org/2000/svg" width="24" height="24" viewBox="0 0 24 24">
  <path id="calendar" d="M15.5,19.007H2.5a2.5,2.5,0,0,1-2.5-2.5V3.5A2.5,2.5,0,0,1,2.5,1H4V.5a.5.5,0,0,1,1,0V1h8V.5a.5.5,0,1,1,1,0V1h1.5A2.5,2.5,0,0,1,18,3.5V16.507A2.5,2.5,0,0,1,15.5,19.007ZM1,7v9.507a1.5,1.5,0,0,0,1.5,1.5h13a1.5,1.5,0,0,0,1.5-1.5V7ZM2.5,2A1.5,1.5,0,0,0,1,3.5V6H17V3.5A1.5,1.5,0,0,0,15.5,2H14v.5a.5.5,0,0,1-1,0V2H5v.5a.5.5,0,0,1-1,0V2Z" transform="translate(3 2)" fill="#c5cee0"/>
</svg>
