<svg id="_01_Icons_Line_checkmark-circle" data-name="01) Icons/Line/checkmark-circle" xmlns="http://www.w3.org/2000/svg" width="24" height="24" viewBox="0 0 24 24">
  <path id="eye-slash" d="M1.5,18a.5.5,0,0,1-.354-.854l17-17a.5.5,0,1,1,.707.708l-17,17A.5.5,0,0,1,1.5,18Zm8.5-1.99a10.639,10.639,0,0,1-3.326-.534.5.5,0,1,1,.312-.95A9.69,9.69,0,0,0,18.961,9a9.74,9.74,0,0,0-2.53-3.562.5.5,0,0,1,.664-.748,10.732,10.732,0,0,1,2.87,4.13.5.5,0,0,1,0,.36A10.7,10.7,0,0,1,10,16.011ZM3.247,13.447a.5.5,0,0,1-.344-.136,10.745,10.745,0,0,1-2.87-4.13.5.5,0,0,1,0-.36,10.676,10.676,0,0,1,13.293-6.3.5.5,0,0,1-.311.95A9.692,9.692,0,0,0,1.038,9a9.728,9.728,0,0,0,2.53,3.561.5.5,0,0,1-.321.884ZM10,13a4.017,4.017,0,0,1-.546-.037.5.5,0,0,1,.088-.991l.048,0A3.02,3.02,0,0,0,10,12a2.984,2.984,0,0,0,2.1-.861,3.021,3.021,0,0,0,.874-2.5.5.5,0,1,1,.992-.121,4.027,4.027,0,0,1-1.166,3.332A3.977,3.977,0,0,1,10,13ZM6.54,10.038a.5.5,0,0,1-.5-.425A4.015,4.015,0,0,1,7.172,6.17,3.974,3.974,0,0,1,10,5a4.018,4.018,0,0,1,.621.048.5.5,0,0,1-.08.993.509.509,0,0,1-.073-.005,3,3,0,0,0-3.43,3.425.5.5,0,0,1-.495.577Z" transform="translate(2 2.999)" fill="#c5cee0"/>
</svg>
