<svg xmlns="http://www.w3.org/2000/svg" width="30" height="30" viewBox="0 0 30 30"><path d="M18.75,22.5a2.5,2.5,0,1,1,2.5-2.5A2.5,2.5,0,0,1,18.75,22.5Zm0-3.75A1.25,1.25,0,1,0,20,20,1.251,1.251,0,0,0,18.75,18.75ZM7.5,22.5A2.5,2.5,0,1,1,10,20,2.5,2.5,0,0,1,7.5,22.5Zm0-3.75A1.25,1.25,0,1,0,8.75,20,1.251,1.251,0,0,0,7.5,18.75Zm14.374-2.5H7.742A3.115,3.115,0,0,1,4.66,13.638l-.275-1.649s0-.008,0-.012l0-.009L2.856,2.817A1.87,1.87,0,0,0,1.006,1.25H.625A.625.625,0,1,1,.625,0h.383A3.136,3.136,0,0,1,4.07,2.5H24.375a.625.625,0,0,1,.6.8l-2.5,8.75a.628.628,0,0,1-.6.453H5.737l.156.934A1.867,1.867,0,0,0,7.741,15H21.875a.625.625,0,1,1,0,1.25ZM4.28,3.75l1.251,7.5H21.4l2.142-7.5Z" transform="translate(2.5 3.75)" fill="#c5cee0"/></svg>