<svg xmlns="http://www.w3.org/2000/svg" width="30" height="30" viewBox="0 0 30 30"><path d="M18.125,25h-15A3.137,3.137,0,0,1,.189,22.948.62.62,0,0,1,0,22.5V3.125A3.129,3.129,0,0,1,3.125,0h15A1.877,1.877,0,0,1,20,1.875v21.25A1.877,1.877,0,0,1,18.125,25Zm-15-5a1.875,1.875,0,1,0,0,3.75h15a.626.626,0,0,0,.626-.624V20Zm0-18.75A1.877,1.877,0,0,0,1.25,3.125v16.25a3.1,3.1,0,0,1,1.875-.624H3.75V1.25ZM5,1.25v17.5H18.75V1.875a.626.626,0,0,0-.626-.625ZM15.625,10h-7.5a.625.625,0,0,1,0-1.25h7.5a.625.625,0,0,1,0,1.25Zm-2.5-2.5h-5a.625.625,0,0,1,0-1.25h5a.625.625,0,0,1,0,1.25Z" transform="translate(5 2.5)" fill="#c5cee0"/></svg>