<svg xmlns="http://www.w3.org/2000/svg" width="20" height="20" viewBox="0 0 20 20"><path d="M4.584,15.039a.415.415,0,0,1-.082-.008,5.654,5.654,0,0,1-3.365-1.807A5.469,5.469,0,0,1,0,9.623a6.257,6.257,0,0,1,6.25-6.25H8.333V1.1a1.1,1.1,0,0,1,.638-1A1.089,1.089,0,0,1,9.433,0a1.1,1.1,0,0,1,.713.262l5.862,4.984a1.916,1.916,0,0,1,0,2.92L10.146,13.15a1.1,1.1,0,0,1-1.813-.837V10.04H6.7a2.084,2.084,0,0,0-2.055,2.425l.349,2.09a.417.417,0,0,1-.41.484ZM6.25,4.206A5.423,5.423,0,0,0,.833,9.623a4.133,4.133,0,0,0,3.236,4.45L3.824,12.6A2.917,2.917,0,0,1,6.7,9.206H8.75a.417.417,0,0,1,.416.416v2.69a.27.27,0,0,0,.155.242.267.267,0,0,0,.285-.039l5.863-4.983a1.085,1.085,0,0,0,0-1.652L9.606.9a.267.267,0,0,0-.44.2V3.79a.417.417,0,0,1-.416.416Z" transform="translate(1.667 2.46)" fill="#fff"/></svg>