<svg xmlns="http://www.w3.org/2000/svg" width="30" height="30" viewBox="0 0 30 30"><path d="M18.75,22.5a2.5,2.5,0,1,1,2.5-2.5A2.5,2.5,0,0,1,18.75,22.5ZM7.5,22.5A2.5,2.5,0,1,1,10,20,2.5,2.5,0,0,1,7.5,22.5Zm14.374-6.25H7.742A3.116,3.116,0,0,1,4.66,13.638l-.275-1.649a.146.146,0,0,0,0-.021L2.856,2.817A1.868,1.868,0,0,0,1.006,1.25H.625A.625.625,0,1,1,.625,0h.382A3.136,3.136,0,0,1,4.07,2.5H24.375a.624.624,0,0,1,.6.8l-2.5,8.75a.627.627,0,0,1-.6.453H5.738l.156.934A1.869,1.869,0,0,0,7.743,15H21.874a.625.625,0,1,1,0,1.25Z" transform="translate(2.5 3.75)" fill="#64ba02"/></svg>