<svg xmlns="http://www.w3.org/2000/svg" width="20" height="20" viewBox="0 0 20 20"><path d="M10.264,13.334h4.319a.417.417,0,1,1,0,.833H.417a.417.417,0,1,1,0-.833H7.5A4.167,4.167,0,1,0,5,5.834H6.25a.417.417,0,1,1,0,.833H3.75a.417.417,0,0,1-.417-.417v-2.5a.417.417,0,1,1,.833,0v1.69A5,5,0,0,1,8.525,4.273a2.614,2.614,0,0,1-.192-.939,2.5,2.5,0,0,1,2.5-2.5h.244L10.955.712a.417.417,0,0,1,.59-.59l.833.833a.417.417,0,0,1,0,.59l-.833.833a.417.417,0,0,1-.59-.59l.123-.122h-.244A1.667,1.667,0,0,0,9.167,3.334a2.116,2.116,0,0,0,.627,1.388,5,5,0,0,1,.471,8.612Z" transform="translate(2.5 3.333)" fill="#fff"/></svg>