<svg xmlns="http://www.w3.org/2000/svg" width="20" height="20" viewBox="0 0 20 20"><path d="M8.333,16.667a8.333,8.333,0,1,1,8.333-8.333A8.343,8.343,0,0,1,8.333,16.667Zm0-15.833a7.5,7.5,0,1,0,6.495,3.75A7.508,7.508,0,0,0,8.333.833ZM10.417,12.5H7.083a.417.417,0,0,1,0-.833h1.25V7.5H7.083a.417.417,0,0,1,0-.833H8.75a.417.417,0,0,1,.416.416v4.584h1.25a.417.417,0,0,1,0,.833ZM8.75,5.833H7.917A.417.417,0,0,1,7.5,5.416V4.583a.417.417,0,0,1,.417-.416H8.75a.417.417,0,0,1,.416.416v.833A.417.417,0,0,1,8.75,5.833Z" transform="translate(1.667 1.667)" fill="#fff"/></svg>