<svg xmlns="http://www.w3.org/2000/svg" width="30" height="30" viewBox="0 0 30 30"><path d="M16.875,20H3.125A3.129,3.129,0,0,1,0,16.874v-.89a3.132,3.132,0,0,1,1.832-2.845l4.321-1.963a6.25,6.25,0,1,1,7.7,0l4.32,1.964A3.133,3.133,0,0,1,20,15.984v.89A3.129,3.129,0,0,1,16.875,20ZM7.451,11.958l-5.1,2.319a1.88,1.88,0,0,0-1.1,1.708v.89a1.877,1.877,0,0,0,1.875,1.875h13.75a1.877,1.877,0,0,0,1.875-1.875v-.89a1.881,1.881,0,0,0-1.1-1.708l-5.1-2.319a6.155,6.155,0,0,1-2.532.541H9.984a6.164,6.164,0,0,1-2.533-.541ZM10,1.249a5,5,0,1,0,5,5A5.006,5.006,0,0,0,10,1.249Z" transform="translate(5 5.001)" fill="#c5cee0"/></svg>