<svg xmlns="http://www.w3.org/2000/svg" width="20" height="20" viewBox="0 0 20 20"><path d="M8.75,16.68H7.917a1.25,1.25,0,1,1,0-2.5H8.75a1.253,1.253,0,0,1,1.179.833h1.786a1.249,1.249,0,0,0,1.187-.855l.189-.569a1.622,1.622,0,0,1,.1-.242h-.278a.417.417,0,0,1-.416-.417V7.1a.417.417,0,0,1,.416-.416h.417V5.833a5,5,0,0,0-10,0V6.68H3.75a.417.417,0,0,1,.417.416V12.93a.417.417,0,0,1-.417.417H2.083A2.086,2.086,0,0,1,0,11.263v-2.5A2.085,2.085,0,0,1,2.083,6.68H2.5V5.833a5.833,5.833,0,1,1,11.667,0V6.68h.416a2.085,2.085,0,0,1,2.084,2.083v2.5a2.086,2.086,0,0,1-2.084,2.084.738.738,0,0,0-.7.506l-.19.57a2.082,2.082,0,0,1-1.977,1.424H9.929A1.254,1.254,0,0,1,8.75,16.68Zm-.833-1.667a.417.417,0,1,0,0,.833H8.75a.417.417,0,0,0,0-.833Zm5.417-7.5v5h1.249a1.251,1.251,0,0,0,1.25-1.25v-2.5a1.251,1.251,0,0,0-1.25-1.25Zm-11.25,0a1.251,1.251,0,0,0-1.25,1.25v2.5a1.251,1.251,0,0,0,1.25,1.25h1.25v-5Z" transform="translate(1.667 1.654)" fill="#fff"/></svg>