<svg xmlns="http://www.w3.org/2000/svg" width="20" height="20" viewBox="0 0 20 20"><path d="M12.917,15H6.251a.417.417,0,0,1,0-.833h6.667a1.252,1.252,0,0,0,1.25-1.25V2.083a1.252,1.252,0,0,0-1.25-1.25H6.251a.417.417,0,0,1,0-.833h6.667A2.086,2.086,0,0,1,15,2.083V12.916A2.086,2.086,0,0,1,12.917,15ZM3.751,10.834a.414.414,0,0,1-.295-.122L.122,7.378a.417.417,0,0,1,0-.59L3.456,3.455a.417.417,0,1,1,.589.59L1.423,6.667h8.994a.417.417,0,0,1,0,.833H1.423l2.622,2.622a.417.417,0,0,1-.295.712Z" transform="translate(2.499 2.5)" fill="#8f9bb3"/></svg>