<svg xmlns="http://www.w3.org/2000/svg" width="30" height="30" viewBox="0 0 30 30"><path d="M18.125,25H3.11a1.945,1.945,0,0,1-1.857-1.9c-.014-.378-.009-.81,0-1.221A1.877,1.877,0,0,1,3.125,20H20v3.125A1.877,1.877,0,0,1,18.125,25ZM.188,22.95l0,0A.691.691,0,0,1,0,22.5V3.125A3.129,3.129,0,0,1,3.125,0H3.75V18.75H3.125a3.145,3.145,0,0,0-1.875.624c-1.225.9-1.1,3.133-1.062,3.572ZM20,18.75H5V0H18.125A1.877,1.877,0,0,1,20,1.875V18.749ZM8.125,8.75a.625.625,0,0,0,0,1.25h7.5a.625.625,0,0,0,0-1.25Zm0-2.5a.625.625,0,0,0,0,1.25h5a.625.625,0,0,0,0-1.25Z" transform="translate(5 2.5)" fill="#64ba02"/></svg>