<svg xmlns="http://www.w3.org/2000/svg" width="24" height="24" viewBox="0 0 24 24"><path d="M17.633,3.978c.013.175.013.349.013.523A11.382,11.382,0,0,1,6.186,15.962,11.381,11.381,0,0,1,0,14.153a8.418,8.418,0,0,0,.973.05,8.07,8.07,0,0,0,5-1.721A4.036,4.036,0,0,1,2.207,9.689a5.129,5.129,0,0,0,.761.062,4.286,4.286,0,0,0,1.061-.137A4.027,4.027,0,0,1,.8,5.661v-.05a4.065,4.065,0,0,0,1.82.511A4.034,4.034,0,0,1,1.371.736,11.457,11.457,0,0,0,9.677,4.951a4.577,4.577,0,0,1-.1-.923,4.032,4.032,0,0,1,6.971-2.756A7.957,7.957,0,0,0,19.1.3a4.02,4.02,0,0,1-1.771,2.22A8.073,8.073,0,0,0,19.652,1.9,8.645,8.645,0,0,1,17.633,3.978Z" transform="translate(2 4.019)" fill="#fff"/></svg>