<svg xmlns="http://www.w3.org/2000/svg" width="30" height="30" viewBox="0 0 30 30"><path d="M11.25,20a.624.624,0,0,1-.34-.1C3.569,15.15,0,11.094,0,7.5A7.916,7.916,0,0,1,1.867,2.017,6.59,6.59,0,0,1,6.875,0,5.189,5.189,0,0,1,11.25,1.945,5.19,5.19,0,0,1,15.625,0a6.59,6.59,0,0,1,5.008,2.017A7.916,7.916,0,0,1,22.5,7.5c0,3.594-3.569,7.65-10.91,12.4A.624.624,0,0,1,11.25,20ZM6.875,1.25C3.353,1.25,1.25,3.587,1.25,7.5c0,3.04,3.365,6.784,10,11.129,6.635-4.343,10-8.087,10-11.129,0-3.914-2.1-6.251-5.625-6.251a3.866,3.866,0,0,0-3.816,2.156.626.626,0,0,1-1.118,0A3.866,3.866,0,0,0,6.875,1.25Z" transform="translate(3.75 5)" fill="#c5cee0"/></svg>