<svg xmlns="http://www.w3.org/2000/svg" width="20" height="20" viewBox="0 0 20 20"><path d="M14.583,11.667H2.083A2.086,2.086,0,0,1,0,9.583v-7.5A2.086,2.086,0,0,1,2.083,0h12.5a2.086,2.086,0,0,1,2.084,2.083v7.5A2.086,2.086,0,0,1,14.583,11.667ZM.833,5V9.583a1.251,1.251,0,0,0,1.25,1.25h12.5a1.251,1.251,0,0,0,1.25-1.25V5Zm0-1.667v.834h15V3.333Zm1.25-2.5a1.252,1.252,0,0,0-1.25,1.25V2.5h15V2.083a1.252,1.252,0,0,0-1.25-1.25ZM11.667,10A1.668,1.668,0,1,1,12.5,6.89a1.666,1.666,0,1,1,0,2.888A1.67,1.67,0,0,1,11.667,10Zm0-2.5a.834.834,0,1,0,.208,1.642,1.674,1.674,0,0,1,0-1.615A.837.837,0,0,0,11.666,7.5Zm1.667,0a.833.833,0,1,0,.833.833A.834.834,0,0,0,13.333,7.5Z" transform="translate(1.667 4.167)" fill="#fff"/></svg>