<svg xmlns="http://www.w3.org/2000/svg" width="20" height="20" viewBox="0 0 20 20"><path d="M10.833,14.167A1.667,1.667,0,1,1,12.5,15.833,1.668,1.668,0,0,1,10.833,14.167Zm.833,0a.833.833,0,1,0,.833-.833A.835.835,0,0,0,11.666,14.167Zm-8.333,0A1.667,1.667,0,1,1,5,15.833,1.668,1.668,0,0,1,3.333,14.167Zm.833,0A.833.833,0,1,0,5,13.333.835.835,0,0,0,4.166,14.167Zm.992-2.5A2.077,2.077,0,0,1,3.108,9.925l-.183-1.1V8.816l-1.017-6.1A1.251,1.251,0,0,0,.675,1.667H.417A.413.413,0,0,1,0,1.25.417.417,0,0,1,.417.833H.675A2.093,2.093,0,0,1,2.717,2.5H8.75a.417.417,0,0,1,.416.416.412.412,0,0,1-.416.417H2.85l.833,5H14.267l.45-1.575c0-.017.008-.026.008-.042s0-.008.008-.016a.418.418,0,0,1,.8.241l-.55,1.925a.421.421,0,0,1-.4.3H3.825l.108.625a1.247,1.247,0,0,0,1.234,1.042h9.416A.418.418,0,0,1,15,11.25a.412.412,0,0,1-.417.416Zm8.174-6.25V3.333H11.25a.413.413,0,0,1-.417-.416A.419.419,0,0,1,11.25,2.5h2.083V.417a.417.417,0,0,1,.834,0V2.5H16.25a.325.325,0,0,1,.125.026.091.091,0,0,1,.059.025.169.169,0,0,1,.083.05.246.246,0,0,1,.067.067.358.358,0,0,1,.059.125.324.324,0,0,1,.025.125.592.592,0,0,1-.017.116l-.017.05a.4.4,0,0,1-.383.25H14.167V5.417a.417.417,0,0,1-.834,0Z" transform="translate(1.667 2.5)" fill="#fff"/></svg>