<svg xmlns="http://www.w3.org/2000/svg" width="20" height="20" viewBox="0 0 20 20"><path d="M7.5,13.334a.416.416,0,0,1-.227-.067C2.379,10.1,0,7.4,0,5A5.277,5.277,0,0,1,1.245,1.345,4.393,4.393,0,0,1,4.583,0,3.46,3.46,0,0,1,7.5,1.3,3.46,3.46,0,0,1,10.417,0a4.393,4.393,0,0,1,3.338,1.345A5.277,5.277,0,0,1,15,5c0,2.4-2.379,5.1-7.273,8.267A.416.416,0,0,1,7.5,13.334ZM4.583.833C2.235.833.833,2.391.833,5c0,2.027,2.243,4.523,6.667,7.419,4.423-2.9,6.667-5.391,6.667-7.419,0-2.609-1.4-4.167-3.75-4.167A2.577,2.577,0,0,0,7.873,2.27a.417.417,0,0,1-.746,0A2.577,2.577,0,0,0,4.583.833Z" transform="translate(2.5 3.333)" fill="#fff"/></svg>