<svg xmlns="http://www.w3.org/2000/svg" xmlns:xlink="http://www.w3.org/1999/xlink" width="64" height="50" viewBox="0 0 64 50"><defs><filter id="a" x="0" y="0" width="64" height="50" filterUnits="userSpaceOnUse"><feOffset dy="1" input="SourceAlpha"/><feGaussianBlur stdDeviation="3" result="b"/><feFlood flood-color="#d4dcef"/><feComposite operator="in" in2="b"/><feComposite in="SourceGraphic"/></filter><filter id="c" x="0" y="0" width="64" height="50" filterUnits="userSpaceOnUse"><feOffset dy="1" input="SourceAlpha"/><feGaussianBlur stdDeviation="3" result="d"/><feFlood flood-color="#d4dcef"/><feComposite operator="in" in2="d"/><feComposite in="SourceGraphic"/></filter><clipPath id="e"><g transform="matrix(1, 0, 0, 1, 0, 0)" filter="url(#a)"><rect width="46" height="32" rx="4" transform="translate(0.73)" fill="#002885"/></g></clipPath></defs><g transform="translate(8.273 8)"><g transform="matrix(1, 0, 0, 1, -8.27, -8)" filter="url(#c)"><rect width="46" height="32" rx="4" transform="translate(9 8)" fill="#002885"/></g><g clip-path="url(#e)"><path d="M1.544,20.882C5.038,12.989,13.657,8.294,20.6,12.49s12.338-.831,16.2-5.883S54.666-3.606,57.651,3.441s-5.1,23.012-5.1,23.012H2.464S-1.95,28.775,1.544,20.882Z" transform="translate(-5 7.146)" fill="#0041a8"/><circle cx="5.5" cy="5.5" r="5.5" transform="translate(23.727 17)" fill="#ff8900"/><circle cx="5.5" cy="5.5" r="5.5" transform="translate(30.727 17)" fill="#ffcf00"/></g></g></svg>