<svg xmlns="http://www.w3.org/2000/svg" width="24" height="24" viewBox="0 0 24 24"><g transform="translate(3 3)"><path d="M13.511,5.463A8.986,8.986,0,0,1,7.72,7.618,9,9,0,0,1,0,3.175L.584.481,3.175,0A4.78,4.78,0,0,0,7.72,3.364,4.678,4.678,0,0,0,10.5,2.457l2.489.38Z" transform="translate(1.28 10.382)" fill="#59c36a"/><path d="M5.79,3.006,5.273.38,2.784,0A4.678,4.678,0,0,1,0,.907V5.161A8.986,8.986,0,0,0,5.79,3.006Z" transform="translate(9 12.839)" fill="#00a66c"/><path d="M4.254,4.556a4.915,4.915,0,0,0,.2,1.382L1.28,9.113A8.912,8.912,0,0,1,0,4.556,8.911,8.911,0,0,1,1.28,0L3.828.439l.627,2.736A4.914,4.914,0,0,0,4.254,4.556Z" transform="translate(0 4.444)" fill="#ffda2d"/><path d="M9.527,2.109a8.986,8.986,0,0,1-3.21,6.845L3.312,5.948a4.667,4.667,0,0,0,1.466-1.73H.527A.522.522,0,0,1,0,3.691V.527A.522.522,0,0,1,.527,0H8.852a.521.521,0,0,1,.517.432A8.943,8.943,0,0,1,9.527,2.109Z" transform="translate(8.473 6.891)" fill="#4086f4"/><path d="M4.25,4.219a4.667,4.667,0,0,1-1.466,1.73L5.79,8.954A8.986,8.986,0,0,0,9,2.109,8.94,8.94,0,0,0,8.842.432.521.521,0,0,0,8.325,0H0V4.219Z" transform="translate(9 6.891)" fill="#4175df"/><path d="M13.658,2.514a.532.532,0,0,1-.148.39L11.254,5.15a.516.516,0,0,1-.686.053A4.718,4.718,0,0,0,7.72,4.254,4.779,4.779,0,0,0,3.175,7.618L0,4.444A9,9,0,0,1,7.72,0a8.973,8.973,0,0,1,5.748,2.123A.555.555,0,0,1,13.658,2.514Z" transform="translate(1.28)" fill="#ff641a"/><path d="M2.848,5.2a.516.516,0,0,0,.686-.053L5.79,2.9a.532.532,0,0,0,.148-.39.555.555,0,0,0-.19-.39A8.973,8.973,0,0,0,0,0V4.254A4.717,4.717,0,0,1,2.848,5.2Z" transform="translate(9)" fill="#f03800"/></g></svg>