<svg xmlns="http://www.w3.org/2000/svg" xmlns:xlink="http://www.w3.org/1999/xlink" width="62.616" height="49.376" viewBox="0 0 62.616 49.376"><defs><clipPath id="a"><path d="M0,0H62.616V49.376H0Z" transform="translate(0 0.124)" fill="none"/></clipPath></defs><g transform="translate(0 -0.5)"><g transform="translate(0 0.376)"><path d="M0,0H62.616V49.376H0Z" transform="translate(0 0.124)" fill="none"/><g clip-path="url(#a)"><path d="M57.135,49.377H5.482A5.477,5.477,0,0,1,.3,42.126l6.836-19.98A11.16,11.16,0,0,1,16.9,14.619V8.065A8.074,8.074,0,0,1,24.962,0H37.654a8.074,8.074,0,0,1,8.065,8.065v6.554a11.161,11.161,0,0,1,9.761,7.528l6.836,19.98a5.477,5.477,0,0,1-5.182,7.25ZM24.962,3.5A4.57,4.57,0,0,0,20.4,8.065v6.521H42.22V8.065A4.57,4.57,0,0,0,37.654,3.5Z" transform="translate(0 0.124)" fill="#64ba02"/></g></g><path d="M33.382,3.9C23.413,7.254,11.191,5.878.515.046A.346.346,0,0,0,.11.6c11.554,11.082,26.458,9.13,33.748,4.272a.547.547,0,0,0-.477-.975" transform="translate(12.283 28.423)" fill="#fefefe"/><path d="M6.663.245a9.353,9.353,0,0,0-6.54.865.23.23,0,0,0,.127.433c1.719-.144,4.989-.3,5.359.528.376.847-.962,3.679-1.662,5.052a.231.231,0,0,0,.341.292A9.266,9.266,0,0,0,7.62,1.743a1.282,1.282,0,0,0-.957-1.5" transform="translate(42.689 29.365)" fill="#fefefe"/></g></svg>